<svg xmlns="http://www.w3.org/2000/svg" xmlns:xlink="http://www.w3.org/1999/xlink" width="500" zoomAndPan="magnify" viewBox="0 0 375 374.999991" height="500" preserveAspectRatio="xMidYMid meet" version="1.0"><defs><g/><clipPath id="49e0743c26"><path d="M 149 154 L 233 154 L 233 337.269531 L 149 337.269531 Z M 149 154 " clip-rule="nonzero"/></clipPath><clipPath id="7e334359c7"><path d="M 76.472656 136 L 125 136 L 125 168 L 76.472656 168 Z M 76.472656 136 " clip-rule="nonzero"/></clipPath><clipPath id="917f7aad6e"><path d="M 257 136 L 305.511719 136 L 305.511719 168 L 257 168 Z M 257 136 " clip-rule="nonzero"/></clipPath><clipPath id="af7e2579f7"><path d="M 175 37.574219 L 207 37.574219 L 207 86 L 175 86 Z M 175 37.574219 " clip-rule="nonzero"/></clipPath></defs><g fill="#008037" fill-opacity="1"><g transform="translate(55.63845, 272.284612)"><g><path d="M 72.484375 -20.15625 C 66.640625 -5.476562 56.039062 1.859375 40.6875 1.859375 C 30.519531 1.859375 21.925781 -1.957031 14.90625 -9.59375 C 7.894531 -17.226562 4.390625 -27.085938 4.390625 -39.171875 C 4.390625 -51.554688 8 -61.722656 15.21875 -69.671875 C 22.445312 -77.628906 31.519531 -81.609375 42.4375 -81.609375 C 49.75 -81.609375 56.351562 -79.769531 62.25 -76.09375 L 64.5625 -79.859375 L 69.0625 -79.859375 L 69.625 -51.390625 L 64.890625 -51.390625 C 61.253906 -68.378906 53.992188 -76.875 43.109375 -76.875 C 35.453125 -76.875 29.328125 -73.609375 24.734375 -67.078125 C 20.140625 -60.554688 17.84375 -51.535156 17.84375 -40.015625 C 17.84375 -29.804688 20.375 -21.332031 25.4375 -14.59375 C 30.5 -7.863281 36.972656 -4.5 44.859375 -4.5 C 55.921875 -4.5 63.742188 -10.410156 68.328125 -22.234375 Z M 72.484375 -20.15625 "/></g></g></g><g fill="#008037" fill-opacity="1"><g transform="translate(152.715972, 272.284612)"><g/></g></g><g fill="#008037" fill-opacity="1"><g transform="translate(203.573607, 272.284612)"><g/></g></g><g fill="#008037" fill-opacity="1"><g transform="translate(254.431241, 272.284612)"><g><path d="M 49.421875 -81.828125 L 50.421875 -76.765625 L 45.359375 -75.875 C 43.265625 -75.5 39.890625 -73.945312 35.234375 -71.21875 C 30.578125 -68.5 26.765625 -64.753906 23.796875 -59.984375 C 20.835938 -55.222656 18.851562 -49.675781 17.84375 -43.34375 C 23.695312 -48.476562 30.222656 -51.046875 37.421875 -51.046875 C 43.691406 -51.046875 49.039062 -48.625 53.46875 -43.78125 C 57.894531 -38.945312 60.109375 -33.003906 60.109375 -25.953125 C 60.109375 -18.179688 57.5 -11.601562 52.28125 -6.21875 C 47.070312 -0.832031 40.617188 1.859375 32.921875 1.859375 C 24.597656 1.859375 17.921875 -1.140625 12.890625 -7.140625 C 7.859375 -13.148438 5.34375 -21.21875 5.34375 -31.34375 C 5.34375 -44.625 9.3125 -55.890625 17.25 -65.140625 C 25.1875 -74.390625 35.910156 -79.953125 49.421875 -81.828125 Z M 17.5625 -37.703125 L 17.328125 -30.78125 C 17.328125 -22.082031 18.753906 -15.21875 21.609375 -10.1875 C 24.460938 -5.15625 28.269531 -2.640625 33.03125 -2.640625 C 37.5 -2.640625 41.09375 -4.597656 43.8125 -8.515625 C 46.53125 -12.441406 47.890625 -17.742188 47.890625 -24.421875 C 47.890625 -30.617188 46.484375 -35.535156 43.671875 -39.171875 C 40.859375 -42.804688 37.125 -44.625 32.46875 -44.625 C 26.65625 -44.625 21.6875 -42.316406 17.5625 -37.703125 Z M 17.5625 -37.703125 "/></g></g></g><g clip-path="url(#49e0743c26)"><path fill="#56a832" d="M 152.425781 337.269531 C 166.65625 255.730469 283.671875 256.3125 205.964844 154.738281 C 240.453125 261.589844 130.65625 234.769531 152.425781 337.269531 Z M 152.425781 337.269531 " fill-opacity="1" fill-rule="evenodd"/><path fill="#008037" d="M 229.496094 337.269531 C 225.171875 312.457031 211.300781 295.234375 196.328125 280.4375 C 202.023438 275.070312 208.1875 269.601562 214.054688 263.792969 C 227.792969 279.554688 237.480469 299.75 229.496094 337.269531 Z M 167.785156 252.976562 C 146.8125 230.363281 137.425781 205.109375 175.960938 154.738281 C 162.25 197.210938 171.335938 218.5625 185.921875 235.3125 C 181.925781 239.414062 177.691406 243.320312 173.5625 247.253906 C 171.613281 249.15625 169.6875 251.054688 167.785156 252.976562 Z M 167.785156 252.976562 " fill-opacity="1" fill-rule="evenodd"/></g><path fill="#008037" d="M 190.964844 109.265625 C 202.605469 109.265625 212.050781 118.703125 212.050781 130.34375 C 212.050781 141.984375 202.613281 151.386719 190.964844 151.386719 C 179.316406 151.386719 169.878906 141.976562 169.878906 130.34375 C 169.878906 118.707031 179.316406 109.265625 190.964844 109.265625 Z M 190.964844 109.265625 " fill-opacity="1" fill-rule="evenodd"/><g clip-path="url(#7e334359c7)"><path fill="#56a832" d="M 76.566406 151.910156 C 91.210938 169.320312 108.800781 173.527344 124.351562 155.019531 C 118.738281 156.121094 108.554688 155.515625 100.925781 151.910156 C 108.550781 148.304688 118.738281 147.699219 124.351562 148.796875 C 108.800781 130.28125 91.210938 134.488281 76.566406 151.910156 Z M 76.566406 151.910156 " fill-opacity="1" fill-rule="evenodd"/></g><g clip-path="url(#917f7aad6e)"><path fill="#56a832" d="M 305.355469 151.910156 C 290.710938 169.320312 273.121094 173.527344 257.570312 155.019531 C 263.183594 156.121094 273.367188 155.515625 280.996094 151.910156 C 273.375 148.304688 263.183594 147.699219 257.570312 148.796875 C 273.128906 130.28125 290.71875 134.488281 305.355469 151.910156 Z M 305.355469 151.910156 " fill-opacity="1" fill-rule="evenodd"/></g><path fill="#56a832" d="M 110.066406 71.054688 C 108.113281 93.726562 117.582031 109.128906 141.667969 107.015625 C 136.90625 103.824219 130.132812 96.199219 127.296875 88.277344 C 135.226562 91.113281 142.878906 97.878906 146.046875 102.636719 C 148.164062 78.566406 132.75 69.070312 110.066406 71.054688 Z M 110.066406 71.054688 " fill-opacity="1" fill-rule="evenodd"/><g clip-path="url(#af7e2579f7)"><path fill="#56a832" d="M 190.964844 37.574219 C 173.542969 52.210938 169.332031 69.792969 187.851562 85.332031 C 186.75 79.722656 187.355469 69.515625 190.964844 61.921875 C 194.570312 69.515625 195.175781 79.722656 194.078125 85.332031 C 212.597656 69.792969 208.386719 52.210938 190.964844 37.574219 Z M 190.964844 37.574219 " fill-opacity="1" fill-rule="evenodd"/></g><path fill="#56a832" d="M 271.863281 71.054688 C 249.179688 69.078125 233.765625 78.566406 235.882812 102.636719 C 239.074219 97.878906 246.703125 91.113281 254.632812 88.277344 C 251.796875 96.199219 245.023438 103.820312 240.261719 107.015625 C 264.347656 109.128906 273.839844 93.726562 271.863281 71.054688 Z M 271.863281 71.054688 " fill-opacity="1" fill-rule="evenodd"/></svg>